# xmcd
#
# Track frame offsets:
#	150
#	17109
#	34047
#	52654
#	70297
#	86424
#	103542
#	122407
#	141243
#	160146
#	182757
#	204310
#	220264
#	238075
#	256613
#
# Disc length: 3954 seconds
#
# Revision: 0
# Processed by: cddbd v1.4PL0 Copyright (c) Steve Scherf et al.
# Submitted via: dBpowerAMP V4.0
#
DISCID=c10f700f
DTITLE=Jessica Andrews - Now
DYEAR=2003
DGENRE=Country
TTITLE0=There's More To Me Than You
TTITLE1=When Gentry Plays Guitar
TTITLE2=I Wish For You
TTITLE3=To Love You Once
TTITLE4=I Bring It To You
TTITLE5=Never Be Forgotten
TTITLE6=They Are The Roses
TTITLE7=Sunshine And Love
TTITLE8=You're The Man
TTITLE9=Cowboy Guarantee
TTITLE10=Now
TTITLE11=Second Sunday
TTITLE12=Windows On A Train
TTITLE13=God Don't Give Up On Us
TTITLE14=Good Time
EXTD=
EXTT0=
EXTT1=
EXTT2=
EXTT3=
EXTT4=
EXTT5=
EXTT6=
EXTT7=
EXTT8=
EXTT9=
EXTT10=
EXTT11=
EXTT12=
EXTT13=
EXTT14=
PLAYORDER=
